<mxfile host="app.diagrams.net" modified="2023-06-01T09:40:05.573Z" agent="Mozilla/5.0 (Windows NT 10.0; Win64; x64) AppleWebKit/537.36 (KHTML, like Gecko) Chrome/113.0.0.0 Safari/537.36" version="21.3.6" etag="7a-NUxSEbhLRUXSSe3rX" type="github">
  <diagram name="Сторінка-1" id="vxo9Mqeuw824rBDed6Ia">
    <mxGraphModel>
      <root>
        <mxCell id="0" />
        <mxCell id="1" parent="0" />
      </root>
    </mxGraphModel>
  </diagram>
</mxfile>
